<svg width="39" height="40" fill="none" xmlns="http://www.w3.org/2000/svg"><path d="M19.026 9.648c-5.398 0-9.752 4.534-9.752 10.154s4.354 10.154 9.752 10.154c5.398 0 9.752-4.534 9.752-10.154S24.424 9.648 19.026 9.648zm0 16.755c-3.488 0-6.34-2.96-6.34-6.601s2.843-6.601 6.34-6.601 6.34 2.96 6.34 6.601c0 3.64-2.852 6.601-6.34 6.601zm12.425-17.17c0 1.316-1.018 2.368-2.274 2.368-1.265 0-2.275-1.06-2.275-2.368 0-1.308 1.018-2.369 2.275-2.369 1.256 0 2.274 1.06 2.274 2.369zm6.459 2.403c-.144-3.172-.84-5.982-3.072-8.298-2.224-2.315-4.923-3.04-7.97-3.199-3.14-.185-12.552-.185-15.693 0-3.038.15-5.737.875-7.969 3.19C.974 5.645.286 8.455.134 11.628c-.179 3.27-.179 13.07 0 16.34.144 3.172.84 5.982 3.072 8.298 2.232 2.315 4.923 3.04 7.97 3.199 3.14.185 12.552.185 15.692 0 3.047-.15 5.746-.875 7.97-3.2 2.223-2.315 2.92-5.125 3.072-8.297.178-3.27.178-13.062 0-16.332zm-4.057 19.84c-.662 1.732-1.944 3.066-3.616 3.765-2.503 1.034-8.444.795-11.211.795-2.767 0-8.716.23-11.211-.795-1.664-.69-2.946-2.024-3.616-3.765-.993-2.607-.764-8.793-.764-11.674 0-2.881-.22-9.076.764-11.674.662-1.732 1.944-3.066 3.616-3.765 2.503-1.034 8.444-.795 11.211-.795 2.767 0 8.716-.23 11.212.795 1.663.69 2.944 2.024 3.615 3.765.993 2.607.764 8.793.764 11.674 0 2.88.229 9.076-.764 11.674z" fill="#fff"/></svg>