<svg width="36" height="36" fill="none" xmlns="http://www.w3.org/2000/svg"><path d="M18.063.54C8.425.54.54 8.427.54 18.064c0 9.635 7.885 17.52 17.521 17.52 9.636 0 17.52-7.885 17.52-17.52C35.583 8.425 27.786.54 18.063.54zm8.058 25.318c-.349.524-.963.701-1.49.352-4.12-2.543-9.289-3.069-15.421-1.667-.61.178-1.137-.26-1.312-.788-.177-.614.261-1.136.789-1.313 6.655-1.491 12.44-.875 16.994 1.929.614.261.701.96.44 1.487zm2.105-4.818c-.44.612-1.228.876-1.844.437-4.73-2.887-11.911-3.767-17.43-2.013-.698.177-1.49-.176-1.664-.874-.178-.705.175-1.494.875-1.67 6.394-1.925 14.28-.96 19.71 2.37.526.261.79 1.137.352 1.75zm.173-4.908c-5.607-3.327-14.98-3.678-20.326-2.01A1.645 1.645 0 016.06 13.07a1.643 1.643 0 011.05-2.019c6.22-1.84 16.472-1.49 22.955 2.37.788.436 1.05 1.488.612 2.276-.438.614-1.489.873-2.278.435z" fill="#fff"/></svg>